<svg width="155" height="50" viewBox="0 0 155 50" fill="none" xmlns="http://www.w3.org/2000/svg">
<circle cx="25" cy="25" r="24.5" stroke="#2D74FF" stroke-opacity="0.4"/>
<path d="M33.5 24.134C34.1667 24.5189 34.1667 25.4811 33.5 25.866L21.5 32.7942C20.8333 33.1791 20 32.698 20 31.9282L20 18.0718C20 17.302 20.8333 16.8209 21.5 17.2058L33.5 24.134Z" fill="#2D74FF"/>
<path opacity="0.7" d="M69.774 23.126C69.774 24.17 69.414 25.04 68.694 25.736C67.986 26.42 66.9 26.762 65.436 26.762H63.024V32H61.386V19.454H65.436C66.852 19.454 67.926 19.796 68.658 20.48C69.402 21.164 69.774 22.046 69.774 23.126ZM65.436 25.412C66.348 25.412 67.02 25.214 67.452 24.818C67.884 24.422 68.1 23.858 68.1 23.126C68.1 21.578 67.212 20.804 65.436 20.804H63.024V25.412H65.436ZM73.8078 18.68V32H72.1698V18.68H73.8078ZM76.3475 27.032C76.3475 26.024 76.5515 25.142 76.9595 24.386C77.3675 23.618 77.9255 23.024 78.6335 22.604C79.3535 22.184 80.1515 21.974 81.0275 21.974C81.8915 21.974 82.6415 22.16 83.2775 22.532C83.9135 22.904 84.3875 23.372 84.6995 23.936V22.136H86.3555V32H84.6995V30.164C84.3755 30.74 83.8895 31.22 83.2415 31.604C82.6055 31.976 81.8615 32.162 81.0095 32.162C80.1335 32.162 79.3415 31.946 78.6335 31.514C77.9255 31.082 77.3675 30.476 76.9595 29.696C76.5515 28.916 76.3475 28.028 76.3475 27.032ZM84.6995 27.05C84.6995 26.306 84.5495 25.658 84.2495 25.106C83.9495 24.554 83.5415 24.134 83.0255 23.846C82.5215 23.546 81.9635 23.396 81.3515 23.396C80.7395 23.396 80.1815 23.54 79.6775 23.828C79.1735 24.116 78.7715 24.536 78.4715 25.088C78.1715 25.64 78.0215 26.288 78.0215 27.032C78.0215 27.788 78.1715 28.448 78.4715 29.012C78.7715 29.564 79.1735 29.99 79.6775 30.29C80.1815 30.578 80.7395 30.722 81.3515 30.722C81.9635 30.722 82.5215 30.578 83.0255 30.29C83.5415 29.99 83.9495 29.564 84.2495 29.012C84.5495 28.448 84.6995 27.794 84.6995 27.05ZM97.9796 22.136L92.0396 36.644H90.3476L92.2916 31.892L88.3136 22.136H90.1316L93.2276 30.128L96.2876 22.136H97.9796ZM108.817 30.488L111.877 22.136H113.623L109.753 32H107.845L103.975 22.136H105.739L108.817 30.488ZM116.441 20.534C116.129 20.534 115.865 20.426 115.649 20.21C115.433 19.994 115.325 19.73 115.325 19.418C115.325 19.106 115.433 18.842 115.649 18.626C115.865 18.41 116.129 18.302 116.441 18.302C116.741 18.302 116.993 18.41 117.197 18.626C117.413 18.842 117.521 19.106 117.521 19.418C117.521 19.73 117.413 19.994 117.197 20.21C116.993 20.426 116.741 20.534 116.441 20.534ZM117.233 22.136V32H115.595V22.136H117.233ZM119.773 27.032C119.773 26.024 119.977 25.142 120.385 24.386C120.793 23.618 121.351 23.024 122.059 22.604C122.779 22.184 123.583 21.974 124.471 21.974C125.239 21.974 125.953 22.154 126.613 22.514C127.273 22.862 127.777 23.324 128.125 23.9V18.68H129.781V32H128.125V30.146C127.801 30.734 127.321 31.22 126.685 31.604C126.049 31.976 125.305 32.162 124.453 32.162C123.577 32.162 122.779 31.946 122.059 31.514C121.351 31.082 120.793 30.476 120.385 29.696C119.977 28.916 119.773 28.028 119.773 27.032ZM128.125 27.05C128.125 26.306 127.975 25.658 127.675 25.106C127.375 24.554 126.967 24.134 126.451 23.846C125.947 23.546 125.389 23.396 124.777 23.396C124.165 23.396 123.607 23.54 123.103 23.828C122.599 24.116 122.197 24.536 121.897 25.088C121.597 25.64 121.447 26.288 121.447 27.032C121.447 27.788 121.597 28.448 121.897 29.012C122.197 29.564 122.599 29.99 123.103 30.29C123.607 30.578 124.165 30.722 124.777 30.722C125.389 30.722 125.947 30.578 126.451 30.29C126.967 29.99 127.375 29.564 127.675 29.012C127.975 28.448 128.125 27.794 128.125 27.05ZM141.909 26.69C141.909 27.002 141.891 27.332 141.855 27.68H133.971C134.031 28.652 134.361 29.414 134.961 29.966C135.573 30.506 136.311 30.776 137.175 30.776C137.883 30.776 138.471 30.614 138.939 30.29C139.419 29.954 139.755 29.51 139.947 28.958H141.711C141.447 29.906 140.919 30.68 140.127 31.28C139.335 31.868 138.351 32.162 137.175 32.162C136.239 32.162 135.399 31.952 134.655 31.532C133.923 31.112 133.347 30.518 132.927 29.75C132.507 28.97 132.297 28.07 132.297 27.05C132.297 26.03 132.501 25.136 132.909 24.368C133.317 23.6 133.887 23.012 134.619 22.604C135.363 22.184 136.215 21.974 137.175 21.974C138.111 21.974 138.939 22.178 139.659 22.586C140.379 22.994 140.931 23.558 141.315 24.278C141.711 24.986 141.909 25.79 141.909 26.69ZM140.217 26.348C140.217 25.724 140.079 25.19 139.803 24.746C139.527 24.29 139.149 23.948 138.669 23.72C138.201 23.48 137.679 23.36 137.103 23.36C136.275 23.36 135.567 23.624 134.979 24.152C134.403 24.68 134.073 25.412 133.989 26.348H140.217ZM148.733 32.162C147.809 32.162 146.969 31.952 146.213 31.532C145.469 31.112 144.881 30.518 144.449 29.75C144.029 28.97 143.819 28.07 143.819 27.05C143.819 26.042 144.035 25.154 144.467 24.386C144.911 23.606 145.511 23.012 146.267 22.604C147.023 22.184 147.869 21.974 148.805 21.974C149.741 21.974 150.587 22.184 151.343 22.604C152.099 23.012 152.693 23.6 153.125 24.368C153.569 25.136 153.791 26.03 153.791 27.05C153.791 28.07 153.563 28.97 153.107 29.75C152.663 30.518 152.057 31.112 151.289 31.532C150.521 31.952 149.669 32.162 148.733 32.162ZM148.733 30.722C149.321 30.722 149.873 30.584 150.389 30.308C150.905 30.032 151.319 29.618 151.631 29.066C151.955 28.514 152.117 27.842 152.117 27.05C152.117 26.258 151.961 25.586 151.649 25.034C151.337 24.482 150.929 24.074 150.425 23.81C149.921 23.534 149.375 23.396 148.787 23.396C148.187 23.396 147.635 23.534 147.131 23.81C146.639 24.074 146.243 24.482 145.943 25.034C145.643 25.586 145.493 26.258 145.493 27.05C145.493 27.854 145.637 28.532 145.925 29.084C146.225 29.636 146.621 30.05 147.113 30.326C147.605 30.59 148.145 30.722 148.733 30.722Z" fill="#171832"/>
</svg>
